# xmcd
#
# Track frame offsets:
# 150
# 13656
# 26349
# 43708
# 61496
# 74165
# 87226
# 99242
# 113803
# 133210
# 146804
# 170924
# 181896
# 197745
# 212953
# 227033
# 240753
# 257659
# 270619
# 280459
#
# Disc length: 3992 seconds
#
#
# Revision: 0
# Processed by: cddbd v1.5.1PL2 Copyright (c) Steve Scherf et al.
# Submitted via: FreeRIP 2.945 
#
DISCID=2d0f9614
DTITLE=América Rodeio - América Rodeio
DYEAR=2005
DGENRE=Country
TTITLE0=Peão de Vitrine - Gian and Giovani
TTITLE1=Rosto com Rosto
TTITLE2=Nóis Tropica, Mais Não Cai - Rick and Renner
TTITLE3=Chattahoochee - Alan Jackson
TTITLE4=Na Sola da Bota - Rio Negro e Solimões
TTITLE5=Chamo na Espora
TTITLE6=Oito Segundos - Hugo and Tiago
TTITLE7=Save a Horse (Ride a Cowboy) - Big and Rich
TTITLE8=Coração Aventureiro - Marlon and Maicon
TTITLE9=Se Tiver Mulher, "Nóis Vai" - Cezar e Paulinho
TTITLE10=Someboy Like You - Keith Urban
TTITLE11=Garanhão da Madrugada - Teodoro and Sampaio
TTITLE12=Amor ou Paixão - Tannia Mara
TTITLE13=Achy Breaky Heart - Billy Ray Cyrus
TTITLE14=Apaziguar - Bruno and Marrone
TTITLE15=Eu Sou Peão - Luiz Cláudio and Giuliano
TTITLE16=Fera Mansa - Zezé de Camargo and Luciano
TTITLE17=I Wanna Do It All - Terri Clark
TTITLE18=Ave-Maria Natureza - Paula Fernandes
TTITLE19=Eu Sei Que Vou Te Amar - Caetano Veloso
EXTD=
EXTT0=
EXTT1=
EXTT2=
EXTT3=
EXTT4=
EXTT5=
EXTT6=
EXTT7=
EXTT8=
EXTT9=
EXTT10=
EXTT11=
EXTT12=
EXTT13=
EXTT14=
EXTT15=
EXTT16=
EXTT17=
EXTT18=
EXTT19=
PLAYORDER=
